PathFileType	4	(X/Y/Z)	Kaydara																																																																																																																									
DataRate	CameraRate	NumFrames	NumMarkers	Units	OrigDataRate	OrigDataStartFrame	OrigNumFrames																																																																																																																					
30	30	4	41	mm	30	50	132																																																																																																																					
Frame#	Time	SALE_LFHD			SALE_RFHD			SALE_LBHD			SALE_RBHD			SALE_LFTShould			SALE_RFTShould			SALE_LRRShould			SALE_RRRShould			SALE_T10			SALE_STRN			SALE_TRUN			SALE_LSHO			SALE_LUPA			SALE_LELB			SALE_LFRM			SALE_LWRA			SALE_LWRB			SALE_LFIN			SALE_RSHO			SALE_RUPA			SALE_RELB			SALE_RFRM			SALE_RWRB			SALE_RFIN			SALE_LFWT			SALE_RFWT			SALE_LBWT			SALE_RBWT			SALE_LTHI			SALE_LKNE			SALE_RWRA			SALE_LSHN			SALE_LANK			SALE_LHEE			SALE_LTOE			SALE_RTHI			SALE_RKNE			SALE_RSHN			SALE_RANK			SALE_RHEE			SALE_RTOE		
		X1	Y1	Z1	X2	Y2	Z2	X3	Y3	Z3	X4	Y4	Z4	X5	Y5	Z5	X6	Y6	Z6	X7	Y7	Z7	X8	Y8	Z8	X9	Y9	Z9	X10	Y10	Z10	X11	Y11	Z11	X12	Y12	Z12	X13	Y13	Z13	X14	Y14	Z14	X15	Y15	Z15	X16	Y16	Z16	X17	Y17	Z17	X18	Y18	Z18	X19	Y19	Z19	X20	Y20	Z20	X21	Y21	Z21	X22	Y22	Z22	X23	Y23	Z23	X24	Y24	Z24	X25	Y25	Z25	X26	Y26	Z26	X27	Y27	Z27	X28	Y28	Z28	X29	Y29	Z29	X30	Y30	Z30	X31	Y31	Z31	X32	Y32	Z32	X33	Y33	Z33	X34	Y34	Z34	X35	Y35	Z35	X36	Y36	Z36	X37	Y37	Z37	X38	Y38	Z38	X39	Y39	Z39	X40	Y40	Z40	X41	Y41	Z41
																																																																																																																												
50	1.633	275.52418	1620.24414	-1670.55908	143.05461	1615.56839	-1675.97702	277.59584	1612.03995	-1803.56674	151.01767	1606.17569	-1802.29767	294.12708	1361.28632	-1730.67688	152.00136	1358.13766	-1735.35858	291.94407	1430.65247	-1836.38153	141.84885	1434.52545	-1833.11691	218.51225	1289.67117	-1925.66177	216.6811	1283.69064	-1694.93301	212.34819	1193.56697	-1663.71719	410.76725	1394.96841	-1791.63498	455.68981	1180.04631	-1807.54929	441.51276	1069.44901	-1826.28754	476.97765	966.52763	-1795.33066	430.88535	830.69321	-1711.16974	488.6211	824.03419	-1760.23346	497.66281	784.51889	-1711.84845	47.68849	1394.8967	-1799.02481	22.44902	1194.59206	-1916.25961	-18.30323	1089.3425	-1907.09946	-15.47982	985.49034	-1951.95313	-47.14868	842.73682	-1957.47482	-67.79565	788.47107	-1921.64459	343.30772	950.72716	-1756.96869	63.68934	957.84966	-1764.20395	287.05072	1024.50218	-1917.63809	110.61719	1026.32034	-1929.08844	324.91928	688.86162	-1982.66068	318.24783	506.44188	-1948.80585	-14.05516	831.54922	-1892.25937	307.37919	312.75492	-2014.12018	296.23613	153.97461	-2120.07492	254.54132	121.68197	-2193.76129	272.90991	83.28185	-2004.25064	52.75965	698.52188	-1828.59131	80.81383	598.96667	-1649.83948	130.17484	388.60756	-1633.99628	85.17365	139.32093	-1710.0354	85.40128	97.53353	-1591.55518	134.92755	73.95351	-1776.55869
51	1.667	273.61248	1611.6095	-1643.4491	140.59484	1608.06656	-1648.26828	274.78556	1608.00171	-1776.59058	148.23489	1602.95532	-1774.7496	290.82695	1356.26923	-1707.84805	148.0321	1352.97791	-1714.50043	290.29005	1424.51187	-1814.07028	140.06916	1428.36929	-1813.21701	218.34906	1282.69073	-1902.81586	213.25159	1279.00574	-1672.4707	208.61773	1188.86513	-1641.43112	408.3559	1389.31808	-1767.39563	452.40601	1173.96355	-1774.2865	439.12464	1061.96449	-1787.85965	470.34641	960.58212	-1745.33951	416.51638	834.65088	-1652.02164	476.66256	821.44173	-1696.21658	481.88042	787.04063	-1643.59451	45.10823	1389.30618	-1780.86578	24.65912	1190.26138	-1900.68451	-18.74611	1085.8342	-1895.10727	-15.01754	982.6123	-1941.22498	-47.63109	840.07927	-1950.17609	-70.41516	785.66528	-1915.97916	344.50855	945.07668	-1735.77881	63.87329	951.60286	-1738.34641	284.09857	1019.10225	-1895.20325	108.19141	1019.80309	-1904.40689	321.61892	689.79225	-1967.64618	317.78238	506.04076	-1941.10321	-18.21218	827.93129	-1883.11523	307.66418	314.34656	-2010.41626	295.41246	157.14035	-2118.7616	252.62325	126.02476	-2191.98029	274.03965	82.84762	-2003.75839	51.31949	694.25133	-1794.68277	80.88172	603.02738	-1610.70313	128.12591	393.39241	-1583.29056	79.63149	140.40366	-1641.11816	82.64641	102.77431	-1520.04745	127.48016	71.40815	-1705.19516
52	1.7	271.28651	1600.06332	-1615.67596	139.00418	1597.38617	-1619.21402	271.34678	1600.79666	-1748.86505	144.81924	1596.49811	-1746.02692	286.95496	1348.00323	-1683.51166	144.13173	1344.32343	-1691.73843	287.76829	1415.3363	-1790.04471	137.65019	1419.19647	-1790.92499	217.14977	1272.77908	-1878.35953	209.19744	1270.74524	-1648.19229	204.65023	1180.69359	-1616.90231	405.17647	1380.7225	-1741.61774	448.74569	1165.37643	-1741.86325	435.91034	1052.4231	-1749.88007	462.83669	953.81981	-1695.71289	400.54337	839.19785	-1593.07648	463.37273	819.86839	-1632.68219	464.09355	791.17851	-1576.37329	42.28353	1380.49103	-1760.19547	26.08434	1183.57132	-1882.79877	-19.1681	1079.52774	-1880.98236	-14.45032	976.65527	-1927.95914	-48.30895	834.58092	-1940.06073	-73.85877	780.33997	-1907.53342	344.77837	936.47873	-1712.92694	64.24229	942.51244	-1709.39255	280.33981	1010.42763	-1871.22025	104.36722	1009.82353	-1876.92841	319.24128	690.15396	-1951.98227	317.83886	505.1017	-1934.88052	-22.91235	821.75903	-1871.75919	308.36578	315.89483	-2007.9837	294.25699	159.79863	-2118.04718	250.29985	130.0914	-2190.67627	274.64081	82.31821	-2003.96133	48.23344	686.44341	-1756.56158	81.036	604.11285	-1568.34579	126.80021	394.352	-1535.12558	71.62322	141.6962	-1582.23221	80.93061	104.43726	-1461.75323	115.07903	70.18252	-1648.78525
53	1.733	268.15514	1587.27463	-1586.70593	136.08361	1585.39795	-1589.47357	267.43614	1590.70343	-1719.87747	140.83142	1587.03522	-1716.2915	282.61395	1336.54327	-1657.0842	140.03816	1333.26065	-1665.99487	284.22089	1404.55719	-1763.7085	133.97963	1408.06946	-1764.6022	214.57241	1261.2973	-1851.43661	205.1515	1259.49326	-1622.13486	200.99588	1169.43024	-1590.59143	401.3805	1370.16556	-1714.24683	444.77295	1155.18761	-1708.08975	432.75227	1041.9455	-1712.17743	454.30267	946.57486	-1647.06711	383.158	843.30566	-1538.21198	448.64918	819.18854	-1571.6275	445.26855	797.1637	-1512.29843	38.17681	1368.84613	-1735.33646	26.28998	1174.10522	-1861.58966	-20.29608	1070.67406	-1863.44376	-14.71167	968.02002	-1911.05316	-49.58913	826.54808	-1926.00815	-77.46248	772.80479	-1895.39978	344.27578	926.60446	-1687.95807	63.75093	931.92932	-1677.70279	275.8082	999.61205	-1845.58334	99.41868	997.58339	-1846.72028	316.93043	688.69965	-1932.82211	316.93125	502.65404	-1922.99362	-27.36775	812.40723	-1855.75058	308.07941	315.74793	-2001.46942	294.2654	162.88752	-2115.78842	250.29463	135.12648	-2188.76678	274.92607	81.57295	-2003.78189	44.54112	677.7861	-1715.53818	81.37854	602.22431	-1524.27002	125.84442	391.03481	-1491.46896	63.335	140.61509	-1536.8103	79.48512	102.41226	-1418.70712	101.027	67.45721	-1607.57172
